ffmpeg started on 2026-01-13 at 12:22:26
Report written to "D:\Convert\FFMetrics\reports\ssim_report-6.txt"
Log level: 32
Command line:
ffmpeg -hide_banner -nostdin -r 24000/1001 -i "F:\\Convert\\files\\[DC] Make Heroine ga Oosugiru - 07_Telegram_HEVC(93).mkv" -r 24000/1001 -i "F:\\Convert\\files\\[DC] Make Heroine ga Oosugiru - 07_Telegram.mp4" -lavfi "[0:v]settb=AVTB,setpts=PTS-STARTPTS,format=pix_fmts=yuv420p10le,fps=24000/1001,scale=1920:1080:flags=lanczos:param0=3:out_range=limited:out_color_matrix=bt709:out_chroma_loc=left,setsar=1/1,setdar=(1920/1080)*(1/1),colorspace=format=yuv420p10:range=tv:primaries=bt709:trc=bt709:space=bt709:fast=0[main];[1:v]settb=AVTB,setpts=PTS-STARTPTS,format=pix_fmts=yuv420p,fps=24000/1001,scale=1920:1080:flags=lanczos:param0=3:out_range=limited:out_color_matrix=bt709:out_chroma_loc=left,setsar=1.000,setdar=1.778,colorspace=format=yuv420p:range=tv:primaries=bt709:trc=bt709:space=bt709:fast=0[ref];[main][ref]ssim=eof_action=endall:stats_file='D\\:/Convert/FFMetrics/logs/ssim_logfile-6.txt'" -f null -
Input #0, matroska,webm, from 'F:\Convert\files\[DC] Make Heroine ga Oosugiru - 07_Telegram_HEVC(93).mkv':
  Metadata:
    COMPATIBLE_BRANDS: isomiso2avc1mp41
    MAJOR_BRAND     : isom
    MINOR_VERSION   : 512
    ENCODER         : Lavf61.7.100
  Duration: 00:24:06.79, start: -0.021000, bitrate: 968 kb/s
  Stream #0:0: Video: hevc (Main 10), yuv420p10le(tv, bt709, progressive), 1920x1080 [SAR 1:1 DAR 16:9], 23.98 fps, 23.98 tbr, 1k tbn (default)
      Metadata:
        HANDLER_NAME    : VideoHandler
        VENDOR_ID       : [0][0][0][0]
        ENCODER         : Lavc61.19.100 libx265
        BPS             : 771724
        DURATION        : 00:24:06.569708333
        NUMBER_OF_FRAMES: 34683
        NUMBER_OF_BYTES : 139544173
        _STATISTICS_WRITING_APP: mkvpropedit v94.0 ('Initiate') 64-bit
        _STATISTICS_WRITING_DATE_UTC: 2026-01-11 18:28:04
        _STATISTICS_TAGS: BPS DURATION NUMBER_OF_FRAMES NUMBER_OF_BYTES
  Stream #0:1: Audio: aac (LC), 48000 Hz, stereo, fltp (default)
      Metadata:
        HANDLER_NAME    : SoundHandler
        VENDOR_ID       : [0][0][0][0]
        ENCODER         : Lavc61.19.100 aac
        BPS             : 193194
        DURATION        : 00:24:06.784000000
        NUMBER_OF_FRAMES: 67819
        NUMBER_OF_BYTES : 34938755
        _STATISTICS_WRITING_APP: mkvpropedit v94.0 ('Initiate') 64-bit
        _STATISTICS_WRITING_DATE_UTC: 2026-01-11 18:28:04
        _STATISTICS_TAGS: BPS DURATION NUMBER_OF_FRAMES NUMBER_OF_BYTES
Input #1, mov,mp4,m4a,3gp,3g2,mj2, from 'F:\Convert\files\[DC] Make Heroine ga Oosugiru - 07_Telegram.mp4':
  Metadata:
    major_brand     : isom
    minor_version   : 512
    compatible_brands: isomiso2avc1mp41
    encoder         : Lavf60.16.100
  Duration: 00:24:06.74, start: 0.000000, bitrate: 3764 kb/s
  Stream #1:0[0x1](und): Video: h264 (High) (avc1 / 0x31637661), yuv420p(tv, bt709, progressive), 1920x1080 [SAR 1:1 DAR 16:9], 3616 kb/s, 23.98 fps, 23.98 tbr, 24k tbn (default)
      Metadata:
        handler_name    : VideoHandler
        vendor_id       : [0][0][0][0]
        encoder         : Lavc60.31.102 h264_qsv
  Stream #1:1[0x2](und): Audio: aac (HE-AACv2) (mp4a / 0x6134706D), 48000 Hz, stereo, fltp, 144 kb/s (default)
      Metadata:
        handler_name    : SoundHandler
        vendor_id       : [0][0][0][0]
Stream mapping:
  Stream #0:0 (hevc) -> settb:default
  Stream #1:0 (h264) -> settb:default
  ssim:default -> Stream #0:0 (wrapped_avframe)
  Stream #0:1 -> #0:1 (aac (native) -> pcm_s16le (native))
Output #0, null, to 'pipe:':
  Metadata:
    COMPATIBLE_BRANDS: isomiso2avc1mp41
    MAJOR_BRAND     : isom
    MINOR_VERSION   : 512
    encoder         : Lavf61.7.100
  Stream #0:0: Video: wrapped_avframe, yuv420p10le(tv, bt709, progressive), 1920x1080 [SAR 1:1 DAR 16:9], q=2-31, 200 kb/s, 23.98 fps, 23.98 tbn
      Metadata:
        encoder         : Lavc61.19.100 wrapped_avframe
  Stream #0:1: Audio: pcm_s16le, 48000 Hz, stereo, s16, 1536 kb/s (default)
      Metadata:
        HANDLER_NAME    : SoundHandler
        VENDOR_ID       : [0][0][0][0]
        _STATISTICS_TAGS: BPS DURATION NUMBER_OF_FRAMES NUMBER_OF_BYTES
        BPS             : 193194
        DURATION        : 00:24:06.784000000
        NUMBER_OF_FRAMES: 67819
        NUMBER_OF_BYTES : 34938755
        _STATISTICS_WRITING_APP: mkvpropedit v94.0 ('Initiate') 64-bit
        _STATISTICS_WRITING_DATE_UTC: 2026-01-11 18:28:04
        encoder         : Lavc61.19.100 pcm_s16le
frame=  128 fps=0.0 q=-0.0 size=N/A time=00:00:05.33 bitrate=N/A speed=10.2x    frame=  296 fps=287 q=-0.0 size=N/A time=00:00:12.34 bitrate=N/A speed=  12x    frame=  477 fps=310 q=-0.0 size=N/A time=00:00:19.89 bitrate=N/A speed=12.9x    frame=  668 fps=323 q=-0.0 size=N/A time=00:00:27.86 bitrate=N/A speed=13.5x    frame=  837 fps=324 q=-0.0 size=N/A time=00:00:34.90 bitrate=N/A speed=13.5x    frame=  975 fps=315 q=-0.0 size=N/A time=00:00:40.66 bitrate=N/A speed=13.1x    frame= 1119 fps=311 q=-0.0 size=N/A time=00:00:46.67 bitrate=N/A speed=  13x    frame= 1278 fps=309 q=-0.0 size=N/A time=00:00:53.30 bitrate=N/A speed=12.9x    frame= 1437 fps=309 q=-0.0 size=N/A time=00:00:59.93 bitrate=N/A speed=12.9x    frame= 1564 fps=303 q=-0.0 size=N/A time=00:01:05.23 bitrate=N/A speed=12.7x    frame= 1721 fps=304 q=-0.0 size=N/A time=00:01:11.78 bitrate=N/A speed=12.7x    frame= 1879 fps=304 q=-0.0 size=N/A time=00:01:18.36 bitrate=N/A speed=12.7x    frame= 2037 fps=304 q=-0.0 size=N/A time=00:01:24.95 bitrate=N/A speed=12.7x    frame= 2142 fps=297 q=-0.0 size=N/A time=00:01:29.33 bitrate=N/A speed=12.4x    frame= 2285 fps=295 q=-0.0 size=N/A time=00:01:35.30 bitrate=N/A speed=12.3x    frame= 2429 fps=295 q=-0.0 size=N/A time=00:01:41.30 bitrate=N/A speed=12.3x    frame= 2564 fps=292 q=-0.0 size=N/A time=00:01:46.94 bitrate=N/A speed=12.2x    frame= 2725 fps=294 q=-0.0 size=N/A time=00:01:53.65 bitrate=N/A speed=12.2x    frame= 2891 fps=295 q=-0.0 size=N/A time=00:02:00.57 bitrate=N/A speed=12.3x    frame= 3063 fps=297 q=-0.0 size=N/A time=00:02:07.75 bitrate=N/A speed=12.4x    frame= 3240 fps=299 q=-0.0 size=N/A time=00:02:15.13 bitrate=N/A speed=12.5x    frame= 3419 fps=301 q=-0.0 size=N/A time=00:02:22.60 bitrate=N/A speed=12.6x    frame= 3594 fps=303 q=-0.0 size=N/A time=00:02:29.89 bitrate=N/A speed=12.6x    frame= 3781 fps=305 q=-0.0 size=N/A time=00:02:37.69 bitrate=N/A speed=12.7x    frame= 3972 fps=308 q=-0.0 size=N/A time=00:02:45.66 bitrate=N/A speed=12.8x    frame= 4160 fps=310 q=-0.0 size=N/A time=00:02:53.50 bitrate=N/A speed=12.9x    frame= 4348 fps=312 q=-0.0 size=N/A time=00:03:01.34 bitrate=N/A speed=  13x    frame= 4513 fps=312 q=-0.0 size=N/A time=00:03:08.22 bitrate=N/A speed=  13x    frame= 4689 fps=314 q=-0.0 size=N/A time=00:03:15.57 bitrate=N/A speed=13.1x    frame= 4880 fps=315 q=-0.0 size=N/A time=00:03:23.53 bitrate=N/A speed=13.2x    frame= 5065 fps=317 q=-0.0 size=N/A time=00:03:31.25 bitrate=N/A speed=13.2x    frame= 5253 fps=318 q=-0.0 size=N/A time=00:03:39.09 bitrate=N/A speed=13.3x    frame= 5428 fps=319 q=-0.0 size=N/A time=00:03:46.39 bitrate=N/A speed=13.3x    frame= 5606 fps=320 q=-0.0 size=N/A time=00:03:53.81 bitrate=N/A speed=13.3x    frame= 5800 fps=321 q=-0.0 size=N/A time=00:04:01.90 bitrate=N/A speed=13.4x    frame= 5982 fps=322 q=-0.0 size=N/A time=00:04:09.49 bitrate=N/A speed=13.4x    frame= 6169 fps=323 q=-0.0 size=N/A time=00:04:17.29 bitrate=N/A speed=13.5x    frame= 6348 fps=324 q=-0.0 size=N/A time=00:04:24.76 bitrate=N/A speed=13.5x    frame= 6523 fps=324 q=-0.0 size=N/A time=00:04:32.06 bitrate=N/A speed=13.5x    frame= 6704 fps=325 q=-0.0 size=N/A time=00:04:39.61 bitrate=N/A speed=13.6x    frame= 6891 fps=326 q=-0.0 size=N/A time=00:04:47.41 bitrate=N/A speed=13.6x    frame= 7067 fps=326 q=-0.0 size=N/A time=00:04:54.75 bitrate=N/A speed=13.6x    frame= 7249 fps=327 q=-0.0 size=N/A time=00:05:02.34 bitrate=N/A speed=13.6x    frame= 7432 fps=328 q=-0.0 size=N/A time=00:05:09.97 bitrate=N/A speed=13.7x    frame= 7606 fps=328 q=-0.0 size=N/A time=00:05:17.23 bitrate=N/A speed=13.7x    frame= 7784 fps=328 q=-0.0 size=N/A time=00:05:24.65 bitrate=N/A speed=13.7x    frame= 7973 fps=329 q=-0.0 size=N/A time=00:05:32.54 bitrate=N/A speed=13.7x    frame= 8146 fps=329 q=-0.0 size=N/A time=00:05:39.75 bitrate=N/A speed=13.7x    frame= 8331 fps=330 q=-0.0 size=N/A time=00:05:47.47 bitrate=N/A speed=13.8x    frame= 8503 fps=330 q=-0.0 size=N/A time=00:05:54.64 bitrate=N/A speed=13.8x    frame= 8682 fps=330 q=-0.0 size=N/A time=00:06:02.11 bitrate=N/A speed=13.8x    frame= 8863 fps=331 q=-0.0 size=N/A time=00:06:09.66 bitrate=N/A speed=13.8x    frame= 9043 fps=331 q=-0.0 size=N/A time=00:06:17.16 bitrate=N/A speed=13.8x    frame= 9221 fps=331 q=-0.0 size=N/A time=00:06:24.59 bitrate=N/A speed=13.8x    frame= 9403 fps=332 q=-0.0 size=N/A time=00:06:32.18 bitrate=N/A speed=13.8x    frame= 9584 fps=332 q=-0.0 size=N/A time=00:06:39.73 bitrate=N/A speed=13.8x    frame= 9768 fps=332 q=-0.0 size=N/A time=00:06:47.40 bitrate=N/A speed=13.9x    frame= 9951 fps=333 q=-0.0 size=N/A time=00:06:55.03 bitrate=N/A speed=13.9x    frame=10132 fps=333 q=-0.0 size=N/A time=00:07:02.58 bitrate=N/A speed=13.9x    frame=10306 fps=333 q=-0.0 size=N/A time=00:07:09.84 bitrate=N/A speed=13.9x    frame=10469 fps=333 q=-0.0 size=N/A time=00:07:16.64 bitrate=N/A speed=13.9x    frame=10653 fps=333 q=-0.0 size=N/A time=00:07:24.31 bitrate=N/A speed=13.9x    frame=10820 fps=333 q=-0.0 size=N/A time=00:07:31.28 bitrate=N/A speed=13.9x    frame=10993 fps=333 q=-0.0 size=N/A time=00:07:38.49 bitrate=N/A speed=13.9x    frame=11167 fps=333 q=-0.0 size=N/A time=00:07:45.75 bitrate=N/A speed=13.9x    frame=11343 fps=333 q=-0.0 size=N/A time=00:07:53.09 bitrate=N/A speed=13.9x    frame=11527 fps=334 q=-0.0 size=N/A time=00:08:00.77 bitrate=N/A speed=13.9x    frame=11707 fps=334 q=-0.0 size=N/A time=00:08:08.27 bitrate=N/A speed=13.9x    frame=11896 fps=334 q=-0.0 size=N/A time=00:08:16.16 bitrate=N/A speed=13.9x    frame=12078 fps=335 q=-0.0 size=N/A time=00:08:23.75 bitrate=N/A speed=  14x    frame=12244 fps=334 q=-0.0 size=N/A time=00:08:30.67 bitrate=N/A speed=  14x    frame=12431 fps=335 q=-0.0 size=N/A time=00:08:38.47 bitrate=N/A speed=  14x    frame=12608 fps=335 q=-0.0 size=N/A time=00:08:45.85 bitrate=N/A speed=  14x    frame=12781 fps=335 q=-0.0 size=N/A time=00:08:53.07 bitrate=N/A speed=  14x    frame=12960 fps=335 q=-0.0 size=N/A time=00:09:00.54 bitrate=N/A speed=  14x    frame=13143 fps=335 q=-0.0 size=N/A time=00:09:08.17 bitrate=N/A speed=  14x    frame=13320 fps=336 q=-0.0 size=N/A time=00:09:15.55 bitrate=N/A speed=  14x    frame=13504 fps=336 q=-0.0 size=N/A time=00:09:23.22 bitrate=N/A speed=  14x    frame=13678 fps=336 q=-0.0 size=N/A time=00:09:30.48 bitrate=N/A speed=  14x    frame=13854 fps=336 q=-0.0 size=N/A time=00:09:37.82 bitrate=N/A speed=  14x    frame=14040 fps=336 q=-0.0 size=N/A time=00:09:45.58 bitrate=N/A speed=  14x    frame=14208 fps=336 q=-0.0 size=N/A time=00:09:52.59 bitrate=N/A speed=  14x    frame=14383 fps=336 q=-0.0 size=N/A time=00:09:59.89 bitrate=N/A speed=  14x    frame=14572 fps=336 q=-0.0 size=N/A time=00:10:07.77 bitrate=N/A speed=  14x    frame=14745 fps=336 q=-0.0 size=N/A time=00:10:14.98 bitrate=N/A speed=  14x    frame=14928 fps=337 q=-0.0 size=N/A time=00:10:22.62 bitrate=N/A speed=  14x    frame=15100 fps=337 q=-0.0 size=N/A time=00:10:29.79 bitrate=N/A speed=  14x    frame=15263 fps=336 q=-0.0 size=N/A time=00:10:36.59 bitrate=N/A speed=  14x    frame=15436 fps=336 q=-0.0 size=N/A time=00:10:43.80 bitrate=N/A speed=  14x    frame=15621 fps=337 q=-0.0 size=N/A time=00:10:51.52 bitrate=N/A speed=  14x    frame=15807 fps=337 q=-0.0 size=N/A time=00:10:59.28 bitrate=N/A speed=14.1x    frame=15987 fps=337 q=-0.0 size=N/A time=00:11:06.79 bitrate=N/A speed=14.1x    frame=16172 fps=337 q=-0.0 size=N/A time=00:11:14.50 bitrate=N/A speed=14.1x    frame=16362 fps=338 q=-0.0 size=N/A time=00:11:22.43 bitrate=N/A speed=14.1x    frame=16521 fps=337 q=-0.0 size=N/A time=00:11:29.06 bitrate=N/A speed=14.1x    frame=16713 fps=338 q=-0.0 size=N/A time=00:11:37.07 bitrate=N/A speed=14.1x    frame=16891 fps=338 q=-0.0 size=N/A time=00:11:44.49 bitrate=N/A speed=14.1x    frame=17070 fps=338 q=-0.0 size=N/A time=00:11:51.96 bitrate=N/A speed=14.1x    frame=17254 fps=338 q=-0.0 size=N/A time=00:11:59.63 bitrate=N/A speed=14.1x    frame=17438 fps=338 q=-0.0 size=N/A time=00:12:07.30 bitrate=N/A speed=14.1x    frame=17610 fps=338 q=-0.0 size=N/A time=00:12:14.48 bitrate=N/A speed=14.1x    frame=17777 fps=338 q=-0.0 size=N/A time=00:12:21.44 bitrate=N/A speed=14.1x    frame=17961 fps=338 q=-0.0 size=N/A time=00:12:29.12 bitrate=N/A speed=14.1x    frame=18142 fps=338 q=-0.0 size=N/A time=00:12:36.67 bitrate=N/A speed=14.1x    frame=18311 fps=338 q=-0.0 size=N/A time=00:12:43.72 bitrate=N/A speed=14.1x    frame=18503 fps=338 q=-0.0 size=N/A time=00:12:51.72 bitrate=N/A speed=14.1x    frame=18676 fps=338 q=-0.0 size=N/A time=00:12:58.94 bitrate=N/A speed=14.1x    frame=18853 fps=339 q=-0.0 size=N/A time=00:13:06.32 bitrate=N/A speed=14.1x    frame=19028 fps=339 q=-0.0 size=N/A time=00:13:13.62 bitrate=N/A speed=14.1x    frame=19217 fps=339 q=-0.0 size=N/A time=00:13:21.50 bitrate=N/A speed=14.1x    frame=19398 fps=339 q=-0.0 size=N/A time=00:13:29.05 bitrate=N/A speed=14.1x    frame=19586 fps=339 q=-0.0 size=N/A time=00:13:36.89 bitrate=N/A speed=14.1x    frame=19772 fps=339 q=-0.0 size=N/A time=00:13:44.65 bitrate=N/A speed=14.1x    frame=19952 fps=339 q=-0.0 size=N/A time=00:13:52.16 bitrate=N/A speed=14.2x    frame=20134 fps=339 q=-0.0 size=N/A time=00:13:59.75 bitrate=N/A speed=14.2x    frame=20320 fps=340 q=-0.0 size=N/A time=00:14:07.51 bitrate=N/A speed=14.2x    frame=20487 fps=340 q=-0.0 size=N/A time=00:14:14.47 bitrate=N/A speed=14.2x    frame=20650 fps=339 q=-0.0 size=N/A time=00:14:21.27 bitrate=N/A speed=14.2x    frame=20817 fps=339 q=-0.0 size=N/A time=00:14:28.24 bitrate=N/A speed=14.1x    frame=20995 fps=339 q=-0.0 size=N/A time=00:14:35.66 bitrate=N/A speed=14.1x    frame=21183 fps=339 q=-0.0 size=N/A time=00:14:43.50 bitrate=N/A speed=14.2x    frame=21356 fps=339 q=-0.0 size=N/A time=00:14:50.72 bitrate=N/A speed=14.2x    frame=21529 fps=339 q=-0.0 size=N/A time=00:14:57.93 bitrate=N/A speed=14.2x    frame=21709 fps=339 q=-0.0 size=N/A time=00:15:05.44 bitrate=N/A speed=14.2x    frame=21889 fps=340 q=-0.0 size=N/A time=00:15:12.95 bitrate=N/A speed=14.2x    frame=22060 fps=339 q=-0.0 size=N/A time=00:15:20.08 bitrate=N/A speed=14.2x    frame=22241 fps=340 q=-0.0 size=N/A time=00:15:27.63 bitrate=N/A speed=14.2x    frame=22421 fps=340 q=-0.0 size=N/A time=00:15:35.14 bitrate=N/A speed=14.2x    frame=22604 fps=340 q=-0.0 size=N/A time=00:15:42.77 bitrate=N/A speed=14.2x    frame=22781 fps=340 q=-0.0 size=N/A time=00:15:50.15 bitrate=N/A speed=14.2x    frame=22954 fps=340 q=-0.0 size=N/A time=00:15:57.37 bitrate=N/A speed=14.2x    frame=23138 fps=340 q=-0.0 size=N/A time=00:16:05.04 bitrate=N/A speed=14.2x    frame=23311 fps=340 q=-0.0 size=N/A time=00:16:12.26 bitrate=N/A speed=14.2x    frame=23492 fps=340 q=-0.0 size=N/A time=00:16:19.81 bitrate=N/A speed=14.2x    frame=23680 fps=340 q=-0.0 size=N/A time=00:16:27.65 bitrate=N/A speed=14.2x    frame=23854 fps=340 q=-0.0 size=N/A time=00:16:34.91 bitrate=N/A speed=14.2x    frame=24040 fps=340 q=-0.0 size=N/A time=00:16:42.66 bitrate=N/A speed=14.2x    frame=24212 fps=340 q=-0.0 size=N/A time=00:16:49.84 bitrate=N/A speed=14.2x    frame=24385 fps=340 q=-0.0 size=N/A time=00:16:57.05 bitrate=N/A speed=14.2x    frame=24569 fps=340 q=-0.0 size=N/A time=00:17:04.73 bitrate=N/A speed=14.2x    frame=24751 fps=340 q=-0.0 size=N/A time=00:17:12.32 bitrate=N/A speed=14.2x    frame=24935 fps=341 q=-0.0 size=N/A time=00:17:19.99 bitrate=N/A speed=14.2x    frame=25115 fps=341 q=-0.0 size=N/A time=00:17:27.50 bitrate=N/A speed=14.2x    frame=25307 fps=341 q=-0.0 size=N/A time=00:17:35.51 bitrate=N/A speed=14.2x    frame=25459 fps=340 q=-0.0 size=N/A time=00:17:41.85 bitrate=N/A speed=14.2x    frame=25637 fps=340 q=-0.0 size=N/A time=00:17:49.27 bitrate=N/A speed=14.2x    frame=25800 fps=340 q=-0.0 size=N/A time=00:17:56.07 bitrate=N/A speed=14.2x    frame=25966 fps=340 q=-0.0 size=N/A time=00:18:02.99 bitrate=N/A speed=14.2x    frame=26141 fps=340 q=-0.0 size=N/A time=00:18:10.29 bitrate=N/A speed=14.2x    frame=26318 fps=340 q=-0.0 size=N/A time=00:18:17.67 bitrate=N/A speed=14.2x    frame=26501 fps=340 q=-0.0 size=N/A time=00:18:25.31 bitrate=N/A speed=14.2x    frame=26688 fps=340 q=-0.0 size=N/A time=00:18:33.11 bitrate=N/A speed=14.2x    frame=26872 fps=341 q=-0.0 size=N/A time=00:18:40.78 bitrate=N/A speed=14.2x    frame=27045 fps=341 q=-0.0 size=N/A time=00:18:48.00 bitrate=N/A speed=14.2x    frame=27230 fps=341 q=-0.0 size=N/A time=00:18:55.71 bitrate=N/A speed=14.2x    frame=27415 fps=341 q=-0.0 size=N/A time=00:19:03.43 bitrate=N/A speed=14.2x    frame=27597 fps=341 q=-0.0 size=N/A time=00:19:11.02 bitrate=N/A speed=14.2x    frame=27772 fps=341 q=-0.0 size=N/A time=00:19:18.32 bitrate=N/A speed=14.2x    frame=27957 fps=341 q=-0.0 size=N/A time=00:19:26.03 bitrate=N/A speed=14.2x    frame=28138 fps=341 q=-0.0 size=N/A time=00:19:33.58 bitrate=N/A speed=14.2x    frame=28322 fps=341 q=-0.0 size=N/A time=00:19:41.26 bitrate=N/A speed=14.2x    frame=28501 fps=341 q=-0.0 size=N/A time=00:19:48.72 bitrate=N/A speed=14.2x    frame=28674 fps=341 q=-0.0 size=N/A time=00:19:55.94 bitrate=N/A speed=14.2x    frame=28824 fps=341 q=-0.0 size=N/A time=00:20:02.20 bitrate=N/A speed=14.2x    frame=28986 fps=341 q=-0.0 size=N/A time=00:20:08.95 bitrate=N/A speed=14.2x    frame=29159 fps=341 q=-0.0 size=N/A time=00:20:16.17 bitrate=N/A speed=14.2x    frame=29335 fps=341 q=-0.0 size=N/A time=00:20:23.51 bitrate=N/A speed=14.2x    frame=29506 fps=341 q=-0.0 size=N/A time=00:20:30.64 bitrate=N/A speed=14.2x    frame=29674 fps=340 q=-0.0 size=N/A time=00:20:37.65 bitrate=N/A speed=14.2x    frame=29814 fps=340 q=-0.0 size=N/A time=00:20:43.49 bitrate=N/A speed=14.2x    frame=29986 fps=340 q=-0.0 size=N/A time=00:20:50.66 bitrate=N/A speed=14.2x    frame=30149 fps=340 q=-0.0 size=N/A time=00:20:57.46 bitrate=N/A speed=14.2x    frame=30327 fps=340 q=-0.0 size=N/A time=00:21:04.88 bitrate=N/A speed=14.2x    frame=30507 fps=340 q=-0.0 size=N/A time=00:21:12.39 bitrate=N/A speed=14.2x    frame=30685 fps=340 q=-0.0 size=N/A time=00:21:19.82 bitrate=N/A speed=14.2x    frame=30859 fps=340 q=-0.0 size=N/A time=00:21:27.07 bitrate=N/A speed=14.2x    frame=31039 fps=340 q=-0.0 size=N/A time=00:21:34.58 bitrate=N/A speed=14.2x    frame=31217 fps=340 q=-0.0 size=N/A time=00:21:42.00 bitrate=N/A speed=14.2x    frame=31398 fps=340 q=-0.0 size=N/A time=00:21:49.55 bitrate=N/A speed=14.2x    frame=31583 fps=340 q=-0.0 size=N/A time=00:21:57.27 bitrate=N/A speed=14.2x    frame=31767 fps=340 q=-0.0 size=N/A time=00:22:04.94 bitrate=N/A speed=14.2x    frame=31943 fps=340 q=-0.0 size=N/A time=00:22:12.28 bitrate=N/A speed=14.2x    frame=32119 fps=340 q=-0.0 size=N/A time=00:22:19.62 bitrate=N/A speed=14.2x    frame=32306 fps=340 q=-0.0 size=N/A time=00:22:27.42 bitrate=N/A speed=14.2x    frame=32485 fps=341 q=-0.0 size=N/A time=00:22:34.89 bitrate=N/A speed=14.2x    frame=32651 fps=340 q=-0.0 size=N/A time=00:22:41.81 bitrate=N/A speed=14.2x    frame=32807 fps=340 q=-0.0 size=N/A time=00:22:48.32 bitrate=N/A speed=14.2x    frame=32971 fps=340 q=-0.0 size=N/A time=00:22:55.16 bitrate=N/A speed=14.2x    frame=33144 fps=340 q=-0.0 size=N/A time=00:23:02.38 bitrate=N/A speed=14.2x    frame=33329 fps=340 q=-0.0 size=N/A time=00:23:10.09 bitrate=N/A speed=14.2x    frame=33490 fps=340 q=-0.0 size=N/A time=00:23:16.81 bitrate=N/A speed=14.2x    frame=33640 fps=340 q=-0.0 size=N/A time=00:23:23.06 bitrate=N/A speed=14.2x    frame=33767 fps=339 q=-0.0 size=N/A time=00:23:28.36 bitrate=N/A speed=14.2x    frame=33896 fps=339 q=-0.0 size=N/A time=00:23:33.74 bitrate=N/A speed=14.1x    frame=34055 fps=339 q=-0.0 size=N/A time=00:23:40.37 bitrate=N/A speed=14.1x    frame=34210 fps=338 q=-0.0 size=N/A time=00:23:46.84 bitrate=N/A speed=14.1x    frame=34348 fps=338 q=-0.0 size=N/A time=00:23:52.59 bitrate=N/A speed=14.1x    frame=34495 fps=338 q=-0.0 size=N/A time=00:23:58.72 bitrate=N/A speed=14.1x    frame=34676 fps=338 q=-0.0 size=N/A time=00:24:06.27 bitrate=N/A speed=14.1x    [Parsed_ssim_16 @ 000002aeda65f4c0] SSIM Y:0.994217 (22.378460) U:0.994016 (22.229881) V:0.993619 (21.951380) All:0.994084 (22.279604)
[out#0/null @ 000002aed2a3fe80] video:14903KiB audio:271276KiB subtitle:0KiB other streams:0KiB global headers:0KiB muxing overhead: unknown
frame=34683 fps=338 q=-0.0 Lsize=N/A time=00:24:06.57 bitrate=N/A speed=14.1x    
